<?xml version="1.0" encoding="utf-8"?>
<!-- Generator: Adobe Illustrator 23.0.1, SVG Export Plug-In . SVG Version: 6.00 Build 0)  -->
<svg version="1.1" id="Calque_1" xmlns="http://www.w3.org/2000/svg" xmlns:xlink="http://www.w3.org/1999/xlink" x="0px" y="0px"
	 viewBox="0 0 1920 1080" style="enable-background:new 0 0 1920 1080;" xml:space="preserve">
<style type="text/css">
	.st0{fill:#0D005C;stroke:#000000;stroke-miterlimit:10;}
	.st1{fill:#FFFFFF;}
	.st2{font-family:'BrushScriptMT';}
	.st3{font-size:490.5851px;}
</style>
<ellipse class="st0" cx="276.5" cy="528.29" rx="250" ry="250.28"/>
<text transform="matrix(0.7917 0 0 1 141.8491 671.5842)" class="st1 st2 st3">A</text>
<g>
	<g>
		<path d="M536.86,474.72v-12.26h79.68v12.26l-36.32,3.91h-7.42L536.86,474.72z M576.17,619.41v16.17h-39.31v-12.26l35.94-3.91
			H576.17z M558.47,462.46h35.4c-0.78,26.69-0.78,53.83-0.78,80.9v15.97c0,22.57,0,49.71,0.78,76.26h-35.4
			c0.78-26.69,0.78-53.83,0.78-78.12v-14.1C559.26,516.15,559.26,489.01,558.47,462.46z M671.95,585.47l-2.61,50.12h-93.17v-14.01
			h84.22l-17.13,14.01l10.34-50.12H671.95z"/>
		<path d="M838.37,624.68c-18.1,9.87-35.85,15.3-58.28,15.3c-52.96,0-89.03-36.39-89.03-91.15c0-53.7,34.99-90.77,91.13-90.77
			c19.36,0,36.6,3.91,51.5,12.24l1.04,39.28h-18.12l-7.87-40.06l17.14,4.45v14.3c-13.42-11.52-26.05-16.3-40.07-16.3
			c-32.32,0-57.76,25.96-57.76,76.85c0,50.73,23.77,77.07,58.44,77.07c12.86,0,22-3.2,35.06-9.93l-15.86,14.56V613
			c0-20.5-0.26-40.57-0.78-61.17h34.25c-0.52,20.24-0.78,40.63-0.78,61.65V624.68z M779.77,564.09v-12.26h73.79v12.26l-29.67,3.38
			h-11.25L779.77,564.09z"/>
		<path d="M1030.61,549.02c0,58.69-39.43,90.96-81.22,90.96c-41.79,0-81.39-30.79-81.39-90.96c0-58.69,39.86-90.96,81.39-90.96
			C990.92,458.07,1030.61,488.85,1030.61,549.02z M949.39,625.88c31.43,0,44.24-35.6,44.24-76.86c0-41.16-12.81-76.95-44.24-76.95
			s-44.41,35.79-44.41,76.95C904.98,590.28,917.96,625.88,949.39,625.88z"/>
		<path d="M1051.23,474.72v-12.26h39.31v16.17h-3.38L1051.23,474.72z M1093.92,619.41l35.94,3.91v12.26h-78.63v-12.26l35.94-3.91
			H1093.92z M1073.62,543.36c0-26.88,0-54.02-0.78-80.9h35.02c-0.78,26.85-0.78,53-0.78,82.55v7.92c0,28.63,0,55.77,0.78,82.65
			h-35.02c0.78-26.36,0.78-53.5,0.78-80.9V543.36z M1090.73,542.56h31.66c27.04,0,37.73-15.14,37.73-34.07
			c0-21.44-11.55-32.49-35.72-32.49h-33.86v-13.54h39.39c40.5,0,63.61,16.58,63.61,44.59c0,21.03-16.14,41.32-56.46,44l0.5-2.38
			c30.19,1.54,41.1,12.64,46.9,38.43l9.82,41.79l-14.89-9.27l33.11,3.71v12.26c-8.63,2.24-13.83,3.18-23.77,3.18
			c-19.25,0-29.36-5.33-32.2-21.54l-7.73-36.31c-3.88-19.32-11.91-25.17-30.5-25.17h-27.57V542.56z"/>
		<path d="M1230.59,476.37l15.38-13.91l-7.58,47.51h-18.25l1.51-47.51h147.95l1.42,47.51h-18.16l-7.58-47.51l15.29,13.91H1230.59z
			 M1299.62,619.41l37.97,3.91v12.26h-83.94v-12.26l37.59-3.91H1299.62z M1278.66,543.36c0-26.88,0-54.02-0.78-80.9h35.4
			c-0.78,26.36-0.78,53.5-0.78,80.9v11.23c0,26.98,0,54.12,0.78,81h-35.4c0.78-26.36,0.78-53.5,0.78-80.9V543.36z"/>
		<path d="M1386.31,474.72v-12.26h39.31v16.17h-3.38L1386.31,474.72z M1425.62,619.41v16.17h-39.31v-12.26l35.94-3.91H1425.62z
			 M1408.7,543.36c0-26.88,0-54.02-0.78-80.9h35.4c-0.78,26.36-0.78,53.5-0.78,80.9v9.25c0,28.96,0,56.1,0.78,82.98h-35.4
			c0.78-26.36,0.78-53.5,0.78-80.9V543.36z M1493.5,462.46l15.38,13.91h-83.27v-13.91h92.21l1.83,45.69h-18.25L1493.5,462.46z
			 M1483.83,553.58h-58.21v-13.73h58.21V553.58z M1524.88,589.9l-1.83,45.69h-97.43v-13.82h88.49l-15.38,13.82l7.9-45.69H1524.88z
			 M1475.67,543.42l3.92-26.32h13.47v58.98h-13.47l-3.92-27.63V543.42z"/>
		<path d="M1678.64,610.23v13.87l-16.85,3.75l7.67-39.77h17.93l-1.04,38.99c-15.2,8.3-33.39,12.91-53.77,12.91
			c-51.47,0-89.45-33.79-89.45-90.96c0-57.08,40.32-90.96,90.25-90.96c16.97,0,34.15,3.4,50.75,12.72l1.04,39.18h-17.93l-7.77-39.96
			l16.85,3.85V489c-13.63-12.49-26.14-17.02-38.28-17.02c-31.5,0-57.93,25.01-57.93,77.14c0,52.04,24.52,76.86,56.39,76.86
			C1650.41,625.97,1665.1,621.06,1678.64,610.23z"/>
		<path d="M1706.25,474.72v-12.26h77.77v12.26l-36.03,3.91h-6.46L1706.25,474.72z M1747.99,619.41l36.03,3.91v12.26h-77.77v-12.26
			l35.27-3.91H1747.99z M1728.46,543.36c0-26.88,0-54.02-0.78-80.9h35.4c-0.78,26.36-0.78,53.5-0.78,80.9v7.93
			c0,30.28,0,57.42,0.78,84.3h-35.4c0.78-26.36,0.78-53.5,0.78-80.9V543.36z M1745.38,553.61v-13.63h104.44v13.63H1745.38z
			 M1811.17,474.72v-12.26h77.77v12.26l-35.75,3.91h-6.27L1811.17,474.72z M1853.19,619.41l35.75,3.91v12.26h-77.77v-12.26
			l35.75-3.91H1853.19z M1832.9,543.36c0-26.88,0-54.02-0.78-80.9h35.4c-0.78,26.36-0.78,53.5-0.78,80.9v11.32
			c0,26.88,0,54.02,0.78,80.9h-35.4c0.78-26.36,0.78-53.5,0.78-84.3V543.36z"/>
	</g>
</g>
</svg>
