<?xml version="1.0" standalone="no"?>
<!DOCTYPE svg PUBLIC "-//W3C//DTD SVG 20010904//EN"
 "http://www.w3.org/TR/2001/REC-SVG-20010904/DTD/svg10.dtd">
<svg version="1.0" xmlns="http://www.w3.org/2000/svg"
 width="467.000000pt" height="326.000000pt" viewBox="0 0 467.000000 326.000000"
 preserveAspectRatio="xMidYMid meet">
<metadata>
Created by potrace 1.15, written by Peter Selinger 2001-2017
</metadata>
<g transform="translate(0.000000,326.000000) scale(0.100000,-0.100000)"
fill="#000000" stroke="none">
<path d="M2150 3061 c-25 -5 -72 -17 -105 -29 -33 -11 -79 -25 -102 -31 -23
-6 -63 -26 -90 -44 -27 -17 -66 -41 -87 -52 -38 -19 -136 -103 -180 -154 -12
-13 -40 -45 -63 -71 -24 -26 -43 -50 -43 -54 0 -3 -12 -23 -28 -45 -15 -21
-35 -55 -44 -77 -93 -226 -110 -306 -109 -533 0 -89 2 -165 5 -169 3 -5 10
-40 16 -78 14 -93 78 -251 132 -328 16 -21 28 -44 28 -50 0 -6 15 -26 34 -46
18 -19 62 -66 97 -104 35 -37 84 -80 109 -94 25 -14 61 -38 80 -53 33 -25 131
-74 195 -96 184 -66 492 -64 640 3 87 39 149 64 160 64 6 0 20 10 31 21 10 12
44 38 74 57 143 91 310 312 364 482 10 30 24 69 31 85 38 91 59 383 35 495
-16 77 -52 200 -67 230 -7 14 -13 34 -13 44 0 10 -13 40 -29 65 -15 26 -31 56
-35 67 -3 10 -18 33 -32 49 -15 17 -48 57 -74 90 -69 86 -134 143 -234 206
-48 29 -99 62 -114 71 -15 9 -34 17 -43 17 -9 1 -59 15 -110 32 -85 29 -108
32 -239 35 -80 1 -165 -1 -190 -5z m300 -235 c16 -25 40 -75 51 -113 12 -37
28 -83 35 -101 8 -18 14 -39 14 -47 0 -8 6 -29 14 -47 8 -18 23 -71 33 -117
10 -46 23 -85 30 -88 6 -3 49 7 95 21 46 13 119 34 163 45 44 11 106 29 138
40 92 32 124 35 152 17 14 -10 30 -28 36 -42 13 -35 -23 -98 -65 -115 -17 -7
-68 -29 -112 -50 -82 -39 -117 -50 -232 -74 -35 -7 -68 -17 -73 -22 -5 -5 0
-31 12 -63 11 -30 24 -68 29 -85 4 -16 23 -66 42 -110 18 -44 46 -118 62 -165
27 -81 28 -87 13 -122 -22 -53 -54 -69 -144 -75 -155 -10 -165 5 -173 262 -6
178 -8 194 -29 224 -20 28 -26 31 -59 25 -44 -7 -96 -22 -137 -39 -16 -7 -55
-18 -85 -24 -30 -6 -73 -20 -95 -30 -22 -10 -56 -24 -75 -31 -19 -7 -48 -19
-65 -26 -16 -7 -55 -21 -85 -32 -89 -32 -110 -44 -110 -62 0 -10 -7 -23 -15
-30 -8 -7 -15 -19 -15 -27 0 -8 -16 -49 -36 -91 -104 -219 -120 -247 -145
-261 -25 -14 -30 -13 -76 17 -27 18 -55 43 -61 56 -16 36 -24 108 -14 141 8
28 13 30 65 36 63 7 103 28 119 65 18 40 -2 50 -51 25 -30 -16 -46 -19 -59
-12 -56 30 -60 87 -9 140 19 20 52 54 74 77 33 35 47 42 94 48 61 8 95 26 110
59 5 12 15 31 22 42 7 11 24 38 37 60 41 66 47 77 91 150 23 39 48 77 56 86
13 16 38 61 123 224 63 122 120 204 165 240 75 60 104 60 145 1z"/>
<path d="M2240 2561 c0 -4 -16 -28 -35 -52 -19 -24 -35 -50 -35 -56 0 -7 -31
-72 -70 -145 -38 -73 -84 -160 -101 -193 -17 -33 -36 -63 -43 -67 -39 -25 88
11 194 56 47 20 91 36 99 36 15 0 170 68 188 82 10 8 9 16 -6 37 -10 14 -22
37 -26 51 -4 14 -23 49 -42 79 -19 30 -39 64 -43 77 -23 60 -80 128 -80 95z"/>
<path d="M1285 631 c-77 -8 -127 -40 -166 -109 -37 -64 -40 -122 -10 -185 43
-89 112 -129 232 -135 95 -5 145 10 206 62 27 23 73 120 62 131 -6 4 -96 9
-157 7 -79 -3 -54 -22 29 -22 79 0 90 -10 68 -61 -36 -89 -268 -109 -359 -32
-43 36 -60 74 -60 136 0 66 35 125 94 158 59 34 192 34 253 1 44 -23 83 -29
83 -13 0 6 -21 21 -47 34 -54 27 -137 37 -228 28z"/>
<path d="M1869 630 c-136 -41 -208 -184 -150 -298 22 -42 95 -101 150 -120 47
-16 144 -15 186 2 86 36 165 137 165 210 0 62 -64 152 -133 188 -42 21 -172
32 -218 18z m197 -44 c75 -35 99 -74 99 -161 0 -62 -4 -75 -30 -113 -26 -36
-40 -45 -98 -63 -74 -23 -116 -21 -188 7 -51 21 -119 116 -119 166 0 49 64
137 120 166 61 31 147 30 216 -2z"/>
<path d="M3180 631 l-115 -6 0 -205 0 -205 124 -3 c116 -2 157 5 137 25 -3 4
-53 6 -110 5 -79 -2 -106 1 -115 12 -8 9 -11 41 -9 88 l3 73 107 3 c78 2 109
7 118 17 17 21 3 24 -120 27 l-105 3 0 65 0 65 100 2 c55 2 111 6 125 9 24 5
24 6 6 20 -11 8 -22 13 -25 12 -3 -1 -58 -4 -121 -7z"/>
<path d="M3575 628 c-51 -19 -113 -69 -130 -104 -24 -50 -23 -160 1 -205 60
-114 223 -153 366 -88 39 18 68 38 68 47 0 10 -5 12 -17 7 -103 -43 -122 -48
-190 -47 -100 1 -151 25 -188 87 -42 73 -43 118 -3 185 41 67 85 91 178 98 55
4 77 0 131 -22 36 -14 71 -26 77 -26 27 0 9 21 -40 47 -43 21 -69 27 -138 30
-47 1 -98 -2 -115 -9z"/>
<path d="M785 618 c-3 -8 -4 -101 -3 -208 l3 -195 104 -3 c76 -2 107 1 112 10
12 20 -10 27 -67 21 -28 -3 -68 -3 -88 1 l-36 7 0 184 c0 113 -4 186 -10 190
-6 3 -12 0 -15 -7z"/>
<path d="M2345 620 c-9 -15 -10 -384 -1 -398 18 -29 25 -5 28 85 2 78 6 98 18
100 18 4 86 -61 150 -140 25 -31 53 -56 63 -56 24 -1 21 17 -8 48 -33 34 -87
94 -104 115 -19 23 3 46 44 46 26 0 41 9 70 41 31 35 36 46 31 73 -4 19 -21
44 -43 63 -37 32 -40 33 -140 33 -59 0 -104 -4 -108 -10z m209 -31 c13 -7 30
-25 37 -41 16 -38 0 -69 -47 -92 -40 -19 -144 -22 -162 -4 -13 13 -17 130 -5
141 11 11 150 8 177 -4z"/>
<path d="M2715 620 c-6 -10 20 -18 75 -22 l35 -3 5 -195 c3 -107 8 -188 12
-180 5 8 9 96 10 195 l3 180 58 3 c42 2 57 7 57 17 0 12 -22 15 -124 15 -70 0
-127 -4 -131 -10z"/>
<path d="M4015 618 c-9 -27 0 -403 10 -401 6 2 11 42 13 90 2 68 6 91 19 101
11 8 55 12 129 12 142 0 144 -1 144 -115 0 -81 13 -120 25 -73 9 38 0 388 -10
391 -6 1 -12 -32 -15 -73 -6 -97 -15 -102 -160 -98 -58 2 -111 7 -117 11 -9 5
-13 34 -13 82 0 67 -13 106 -25 73z"/>
<path d="M436 596 c-9 -14 -23 -37 -31 -51 -8 -13 -15 -31 -15 -38 0 -8 -9
-22 -20 -32 -21 -19 -80 -121 -80 -138 0 -5 -16 -32 -35 -59 -25 -33 -33 -53
-27 -64 7 -13 10 -12 24 3 9 10 28 42 43 70 14 29 34 57 45 63 10 5 61 10 113
10 l95 0 30 -34 c16 -18 38 -52 48 -74 12 -25 26 -42 37 -42 23 0 21 15 -7 53
-13 18 -27 43 -31 57 -4 14 -20 43 -34 64 -27 40 -29 44 -50 84 -39 76 -74
138 -81 146 -4 4 -15 -4 -24 -18z m68 -129 c40 -74 33 -87 -46 -87 -85 0 -94
7 -73 56 24 58 64 107 78 95 7 -5 25 -34 41 -64z"/>
</g>
</svg>
