<?xml version="1.0" standalone="no"?>
<!DOCTYPE svg PUBLIC "-//W3C//DTD SVG 20010904//EN"
 "http://www.w3.org/TR/2001/REC-SVG-20010904/DTD/svg10.dtd">
<svg version="1.0" xmlns="http://www.w3.org/2000/svg"
 width="130.000000pt" height="53.000000pt" viewBox="0 0 130.000000 53.000000"
 preserveAspectRatio="xMidYMid meet">
<metadata>
Created by potrace 1.15, written by Peter Selinger 2001-2017
</metadata>
<g transform="translate(0.000000,53.000000) scale(0.100000,-0.100000)"
fill="#000000" stroke="none">
<path d="M462 460 c-84 -22 -130 -48 -167 -91 -30 -37 -31 -54 -5 -96 44 -73
187 -117 375 -117 141 0 218 15 302 58 144 72 113 179 -69 238 -94 31 -334 36
-436 8z m314 -54 c-8 -34 19 -117 46 -138 l23 -18 -37 0 c-30 0 -42 6 -60 30
-21 29 -25 30 -98 30 -67 0 -79 -3 -98 -23 -12 -13 -19 -27 -15 -30 3 -4 -10
-7 -30 -7 -44 0 -47 11 -9 40 l27 22 -37 -4 c-21 -2 -38 -1 -38 3 0 7 51 19
82 19 10 0 53 20 96 44 110 62 158 73 148 32z"/>
</g>
</svg>
