<?xml version="1.0" standalone="no"?>
<!DOCTYPE svg PUBLIC "-//W3C//DTD SVG 20010904//EN"
 "http://www.w3.org/TR/2001/REC-SVG-20010904/DTD/svg10.dtd">
<svg version="1.0" xmlns="http://www.w3.org/2000/svg"
 width="467.000000pt" height="326.000000pt" viewBox="0 0 467.000000 326.000000"
 preserveAspectRatio="xMidYMid meet">
<metadata>
Created by potrace 1.15, written by Peter Selinger 2001-2017
</metadata>
<g transform="translate(0.000000,326.000000) scale(0.100000,-0.100000)"
fill="#000000" stroke="none">
<path d="M2200 3011 c-25 -5 -72 -17 -105 -29 -33 -11 -79 -25 -102 -31 -23
-6 -63 -26 -90 -44 -27 -17 -66 -41 -87 -52 -38 -19 -136 -103 -180 -154 -12
-13 -40 -45 -63 -71 -24 -26 -43 -50 -43 -54 0 -3 -12 -23 -28 -45 -28 -38
-36 -55 -90 -191 -61 -154 -78 -378 -43 -574 14 -76 50 -168 51 -128 0 15 7
26 19 29 17 4 18 9 9 35 -6 16 -8 57 -5 90 5 52 10 66 40 97 19 20 52 54 74
77 33 35 47 42 94 48 61 8 95 26 110 59 5 12 15 31 22 42 7 11 24 38 37 60 41
66 47 77 91 150 23 39 48 77 56 86 13 16 38 61 123 224 63 122 120 204 165
240 52 41 60 43 142 44 l72 1 31 -44 c16 -25 40 -75 51 -113 12 -37 27 -84 34
-103 7 -19 18 -51 25 -70 6 -19 16 -53 21 -75 5 -22 14 -61 21 -86 l13 -47 45
14 c25 7 81 22 125 33 44 11 107 30 140 41 33 12 84 24 113 27 28 3 52 9 52
12 0 9 -30 51 -53 76 -10 11 -38 45 -62 75 -62 80 -129 139 -229 201 -48 29
-99 62 -114 71 -15 9 -34 17 -43 17 -9 1 -58 15 -109 31 -100 33 -242 46 -330
31z"/>
<path d="M2234 2428 c-6 -13 -39 -79 -74 -147 -43 -85 -58 -122 -46 -118 9 4
42 14 73 23 89 26 170 68 165 84 -3 8 -22 42 -42 75 -21 33 -41 70 -45 83 -3
12 -10 22 -14 22 -4 0 -12 -10 -17 -22z"/>
<path d="M3230 2252 c0 -5 -15 -15 -32 -22 -18 -7 -70 -30 -114 -51 -83 -39
-126 -53 -227 -72 -46 -9 -56 -14 -51 -26 3 -9 10 -29 14 -46 4 -16 18 -52 30
-80 89 -200 118 -342 86 -420 -25 -58 -53 -69 -195 -73 -211 -6 -212 -4 -221
262 -8 248 -15 260 -123 212 -18 -7 -57 -19 -87 -25 -30 -6 -73 -20 -95 -30
-22 -10 -56 -24 -75 -31 -19 -7 -48 -19 -65 -26 -16 -7 -55 -21 -85 -32 -89
-32 -110 -44 -110 -62 0 -10 -7 -23 -15 -30 -8 -7 -15 -19 -15 -27 0 -8 -15
-47 -34 -86 -19 -40 -53 -111 -75 -159 -43 -90 -69 -118 -108 -118 -13 0 -23
-4 -23 -8 0 -15 134 -138 170 -157 19 -10 51 -30 70 -45 33 -26 130 -74 195
-97 169 -61 403 -59 540 3 87 39 149 64 160 64 6 0 20 10 31 21 10 12 44 38
74 57 143 91 310 312 364 482 10 30 24 69 31 85 37 88 56 300 35 395 -22 102
-33 140 -41 146 -5 3 -9 1 -9 -4z"/>
</g>
</svg>
